<?xml version="1.0" encoding="utf-8"?>
<!-- Generator: Adobe Illustrator 22.0.1, SVG Export Plug-In . SVG Version: 6.00 Build 0)  -->
<svg version="1.1" xmlns="http://www.w3.org/2000/svg" xmlns:xlink="http://www.w3.org/1999/xlink" x="0px" y="0px"
	 viewBox="0 0 25 25" style="enable-background:new 0 0 25 25;" xml:space="preserve">
<style type="text/css">
	.st0{display:none;}
	.st1{display:inline;fill:#282829;}
	.st2{fill:#FFFFFF;}
	.st3{display:inline;}
	.st4{fill:#282829;}
	.st5{fill:#F1F2F2;}
</style>
<g id="Layer_2" class="st0">
	<rect x="0" y="-0.1" class="st1" width="25" height="25"/>
</g>
<g id="Layer_2_copy">
	<rect x="0" y="-0.1" class="st2" width="25" height="25"/>
</g>
<g id="Layer_3" class="st0">
	<g class="st3">
		<path class="st2" d="M3.8,6.6c1-1,2.3-1.5,3.8-1.5c2.1,0,3.6,0.7,4.6,2.1c0.5,0.8,0.8,1.6,0.9,2.3h-2.6c-0.2-0.6-0.4-1.1-0.6-1.4
			C9.4,7.6,8.7,7.3,7.8,7.3c-0.9,0-1.7,0.4-2.2,1.2C5,9.2,4.8,10.3,4.8,11.7s0.3,2.5,0.9,3.2c0.6,0.7,1.3,1,2.2,1
			c0.9,0,1.6-0.3,2.1-0.9c0.3-0.3,0.5-0.8,0.6-1.5h2.6c-0.2,1.4-0.8,2.5-1.7,3.3c-0.9,0.9-2.1,1.3-3.5,1.3c-1.8,0-3.2-0.6-4.2-1.7
			c-1-1.2-1.5-2.8-1.5-4.8C2.1,9.5,2.7,7.8,3.8,6.6z"/>
		<path class="st2" d="M14.9,19.6l0.3,0c0.2,0,0.5,0,0.7,0c0.2,0,0.4-0.1,0.5-0.2c0.1-0.1,0.3-0.3,0.4-0.6c0.1-0.3,0.2-0.5,0.2-0.6
			l-3.4-9.7h2.7l2,6.8l1.9-6.8h2.6l-3.2,9.1c-0.6,1.8-1.1,2.8-1.5,3.3c-0.4,0.4-1.1,0.6-2.1,0.6c-0.2,0-0.4,0-0.5,0s-0.3,0-0.6,0
			V19.6z"/>
	</g>
</g>
<g id="Layer_4" class="st0">
	<g class="st3">
		<path class="st2" d="M8.9,5.9C8.9,5.5,8.7,5.1,8.5,4.8C8.2,4.3,7.7,4.1,7,4.1c-0.9,0-1.6,0.5-1.9,1.4C4.9,6,4.8,6.7,4.8,7.5
			c0,0.8,0.1,1.4,0.3,1.9c0.3,0.9,1,1.3,1.9,1.3c0.7,0,1.1-0.2,1.4-0.5c0.3-0.4,0.4-0.8,0.5-1.4h2.9c-0.1,0.9-0.4,1.7-0.9,2.4
			c-0.9,1.2-2.2,1.8-3.9,1.8s-3-0.5-3.8-1.5s-1.2-2.4-1.2-4c0-1.8,0.5-3.3,1.4-4.3S5.4,1.8,7,1.8c1.3,0,2.5,0.3,3.3,0.9
			c0.9,0.6,1.4,1.7,1.5,3.2H8.9z"/>
		<path class="st2" d="M14.2,20.8l0.4,0c0.3,0,0.5,0,0.8,0c0.2,0,0.5-0.1,0.6-0.2c0.2-0.1,0.3-0.3,0.5-0.7c0.1-0.4,0.2-0.6,0.2-0.7
			L12.7,8h3.1l2.3,7.9L20.4,8h3l-3.7,10.6c-0.7,2-1.3,3.3-1.7,3.8c-0.4,0.5-1.2,0.7-2.5,0.7c-0.3,0-0.5,0-0.6,0c-0.2,0-0.4,0-0.7,0
			V20.8z"/>
	</g>
</g>
<g id="Layer_5">
	<g>
		<path class="st4" d="M9,12.1c-0.1-0.4-0.2-0.8-0.4-1.1c-0.3-0.4-0.8-0.7-1.5-0.7c-1,0-1.6,0.5-2,1.4c-0.2,0.5-0.3,1.2-0.3,2
			c0,0.8,0.1,1.5,0.3,2c0.3,0.9,1,1.4,2,1.4c0.7,0,1.2-0.2,1.4-0.5c0.3-0.4,0.5-0.8,0.5-1.4h2.9c-0.1,0.9-0.4,1.7-1,2.5
			c-0.9,1.3-2.2,1.9-4,1.9c-1.8,0-3.1-0.5-3.9-1.6c-0.8-1.1-1.3-2.4-1.3-4.1c0-1.9,0.5-3.4,1.4-4.4S5.3,7.9,7,7.9
			c1.4,0,2.5,0.3,3.4,0.9s1.4,1.7,1.6,3.3H9z"/>
		<path class="st4" d="M14.3,21.3l0.4,0c0.3,0,0.6,0,0.8,0c0.3,0,0.5-0.1,0.6-0.2c0.2-0.1,0.3-0.4,0.5-0.7c0.1-0.4,0.2-0.6,0.2-0.7
			L12.8,8.2H16l2.4,8.1l2.3-8.1h3.1L20,19c-0.7,2.1-1.3,3.4-1.7,3.9c-0.4,0.5-1.3,0.8-2.6,0.8c-0.3,0-0.5,0-0.6,0
			c-0.2,0-0.4,0-0.7,0V21.3z"/>
	</g>
</g>
<g id="Layer_1" class="st0">
	<g class="st3">
		<path class="st5" d="M7.3,5.2c1.4-1.4,3.2-2.1,5.3-2.1c2.9,0,5,1,6.3,2.9c0.7,1.1,1.1,2.1,1.2,3.2h-3.6c-0.2-0.8-0.5-1.5-0.9-1.9
			C15,6.5,14,6.1,12.8,6.1c-1.3,0-2.3,0.5-3,1.6s-1.1,2.6-1.1,4.5c0,1.9,0.4,3.4,1.2,4.4s1.8,1.4,3,1.4c1.2,0,2.2-0.4,2.8-1.2
			c0.4-0.4,0.7-1.1,0.9-2h3.6c-0.3,1.9-1.1,3.4-2.4,4.6s-2.9,1.8-4.9,1.8c-2.5,0-4.4-0.8-5.8-2.4c-1.4-1.6-2.1-3.8-2.1-6.6
			C4.9,9.1,5.7,6.8,7.3,5.2z"/>
	</g>
</g>
</svg>
