<?xml version="1.0" encoding="utf-8"?>
<!-- Generator: Adobe Illustrator 22.0.1, SVG Export Plug-In . SVG Version: 6.00 Build 0)  -->
<svg version="1.1" id="Layer_1" xmlns="http://www.w3.org/2000/svg" xmlns:xlink="http://www.w3.org/1999/xlink" x="0px" y="0px"
	 viewBox="0 0 335 246.5" style="enable-background:new 0 0 335 246.5;" xml:space="preserve">
<g>
	<path d="M313,246H22c-9,0-17-6-20-14l114-114l32,21c12,8,27,8,39,1l33-21l113,113C330,240,322,246,313,246z"/>
	<polygon points="0,38 107,111 0,218 	"/>
	<path d="M22,0h291c12,0,22,10,22,22v10l-154,98c-8,6-19,5-27,0L0,25v-3C0,10,10,0,22,0z"/>
	<polygon points="335,218 230,113 335,45 	"/>
</g>
</svg>
