<?xml version="1.0" encoding="utf-8"?>
<!-- Generator: Adobe Illustrator 22.0.1, SVG Export Plug-In . SVG Version: 6.00 Build 0)  -->
<svg version="1.1" id="Layer_1" xmlns="http://www.w3.org/2000/svg" xmlns:xlink="http://www.w3.org/1999/xlink" x="0px" y="0px"
	 viewBox="0 0 94 98.7" style="enable-background:new 0 0 94 98.7;" xml:space="preserve">
<path d="M47.3,94.5c-2.2,0-3.8-2-5.3-3.8c-0.8-1-1.8-2.4-2.5-2.5c-0.6-0.2-2.2,0.7-3.4,1.4c-2,1.1-4.1,2.3-6.2,1.5
	c-2-0.8-2.7-3.2-3.3-5.4c-0.4-1.2-0.8-2.9-1.4-3.3c-0.6-0.4-2.3-0.2-3.6,0c-2.3,0.3-4.8,0.6-6.3-1c-1.6-1.6-1.3-4-1-6.3
	c0.2-1.3,0.4-3,0-3.6c-0.4-0.6-2-1-3.3-1.4c-2.3-0.6-4.6-1.3-5.4-3.3s0.4-4.1,1.5-6.2c0.6-1.1,1.5-2.7,1.4-3.4
	C8.4,56.5,7,55.4,6,54.7c-1.8-1.4-3.8-3-3.8-5.3s2-3.8,3.8-5.3c1-0.8,2.4-1.8,2.5-2.5s-0.7-2.2-1.4-3.4c-1.1-2-2.3-4.1-1.5-6.2
	c0.8-2,3.2-2.7,5.4-3.3c1.2-0.4,2.9-0.8,3.3-1.4c0.4-0.6,0.2-2.3,0-3.6c-0.3-2.3-0.6-4.8,1-6.3c1.6-1.6,4-1.3,6.3-1
	c1.3,0.2,3,0.4,3.6,0c0.6-0.4,1-2,1.4-3.3c0.6-2.3,1.3-4.6,3.3-5.4c2-1,4.1,0.2,6.2,1.3c1.2,0.6,2.8,1.5,3.4,1.4
	C40.2,10.4,41.3,9,42,8c1.4-1.8,3-3.8,5.3-3.8c2.2,0,3.8,2,5.3,3.8c0.8,1,1.8,2.4,2.5,2.5c0.7,0.2,2.2-0.7,3.4-1.4
	c2-1.1,4.1-2.3,6.2-1.5c2,0.8,2.7,3.2,3.3,5.4c0.4,1.2,0.8,2.9,1.4,3.3c0.6,0.4,2.3,0.2,3.6,0c2.3-0.3,4.8-0.6,6.3,1
	c1.6,1.6,1.3,4,1,6.3c-0.2,1.3-0.4,3,0,3.6s2,1,3.3,1.4c2.3,0.6,4.6,1.3,5.4,3.3s-0.4,4.1-1.5,6.2c-0.6,1.1-1.5,2.7-1.4,3.4
	c0.1,0.6,1.5,1.8,2.5,2.5c1.8,1.4,3.8,3,3.8,5.3s-2,3.8-3.8,5.3c-1,0.8-2.4,1.8-2.5,2.5c-0.1,0.6,0.7,2.2,1.4,3.4
	c1.1,2,2.3,4.1,1.5,6.2s-3.2,2.7-5.4,3.3c-1.2,0.4-2.9,0.8-3.3,1.4c-0.4,0.6-0.2,2.3,0,3.6c0.3,2.3,0.6,4.8-1,6.3
	c-1.6,1.6-4,1.3-6.3,1c-1.3-0.2-3-0.4-3.6,0s-1,2-1.4,3.3c-0.6,2.3-1.3,4.6-3.3,5.4c-2,0.8-4.1-0.4-6.2-1.5
	c-1.1-0.6-2.7-1.5-3.4-1.4c-0.6,0.1-1.8,1.5-2.5,2.5C51,92.5,49.5,94.5,47.3,94.5z M39.4,84.9c0.3,0,0.6,0,0.7,0.1
	c1.8,0.4,3.1,2,4.4,3.7c0.8,1,2,2.6,2.7,2.6s1.9-1.6,2.7-2.6c1.3-1.7,2.6-3.3,4.4-3.7c1.8-0.4,3.8,0.6,5.6,1.8
	c1,0.6,2.8,1.6,3.3,1.3c0.6-0.3,1.1-2.1,1.5-3.4c0.6-2,1.2-4.1,2.7-5.1c1.6-1,3.7-0.8,5.8-0.6c1.2,0.1,3.2,0.4,3.7-0.1
	c0.5-0.5,0.2-2.5,0.1-3.7c-0.3-2.1-0.5-4.2,0.6-5.8c1-1.6,3.1-2.1,5.1-2.7c1.3-0.4,3.1-0.9,3.4-1.5c0.2-0.6-0.7-2.3-1.3-3.3
	c-1-1.8-2.1-3.8-1.8-5.6c0.4-1.8,2-3.1,3.7-4.4c1-0.8,2.6-2,2.6-2.7c0-0.6-1.6-1.9-2.6-2.7C85,45.3,83.4,44,83,42.2
	c-0.4-1.8,0.6-3.8,1.8-5.6c0.6-1,1.6-2.8,1.3-3.3c-0.3-0.6-2.1-1.1-3.4-1.5c-2-0.6-4.1-1.2-5.1-2.7c-1-1.6-0.8-3.7-0.6-5.8
	c0.1-1.2,0.4-3.2-0.1-3.7c-0.5-0.5-2.5-0.2-3.7-0.1c-2.1,0.3-4.2,0.5-5.8-0.6c-1.6-1-2.1-3.1-2.7-5.1c-0.4-1.3-0.9-3.1-1.5-3.4
	c-0.6-0.2-2.3,0.7-3.3,1.3c-1.8,1-3.8,2.1-5.6,1.8c-1.8-0.4-3.1-2-4.4-3.7c-0.8-1-2-2.6-2.7-2.6c-0.6,0-1.9,1.8-2.7,2.8
	c-1.3,1.7-2.6,3.3-4.4,3.7s-3.8-0.6-5.6-1.8c-1-0.6-2.8-1.6-3.3-1.3c-0.6,0.3-1.1,2.1-1.5,3.4c-0.6,2-1.2,4.1-2.7,5.1
	c-1.6,1-3.7,0.8-5.8,0.6c-1.2-0.1-3.2-0.4-3.7,0.1s-0.2,2.5-0.1,3.7c0.3,2.1,0.5,4.2-0.6,5.8c-1,1.6-3.1,2.1-5.1,2.7
	c-1.3,0.4-3.1,0.9-3.4,1.5c-0.2,0.6,0.7,2.3,1.3,3.3c1,1.8,2.1,3.8,1.8,5.6c-0.4,1.8-2,3.1-3.7,4.4c-1,0.8-2.6,2-2.6,2.7
	s1.6,1.9,2.6,2.7c1.7,1.3,3.3,2.6,3.7,4.4c0.4,1.8-0.6,3.8-1.8,5.6c-0.6,1-1.6,2.8-1.3,3.3c0.3,0.6,2.1,1.1,3.4,1.5
	c2,0.6,4.1,1.2,5.1,2.7c1,1.6,0.8,3.7,0.6,5.8c-0.1,1.2-0.4,3.2,0.1,3.7s2.5,0.2,3.7,0.1c2.1-0.3,4.2-0.5,5.8,0.6
	c1.6,1,2.1,3.1,2.7,5.1c0.4,1.3,0.9,3.1,1.5,3.4c0.6,0.3,2.3-0.7,3.3-1.3C36.1,85.8,37.8,84.9,39.4,84.9z"/>
<path d="M70.5,42v15.8h-2.9c0.6-0.6,0.9-1.4,0.9-2.3V44.2c0-1.8-1.5-3.2-3.2-3.2S62,42.4,62,44.2v9.6L52.5,53
	c-0.6-0.1-1.4,0.2-1.8,0.6c-0.5,0.5-0.7,1.1-0.7,1.8v15.5c0,1.4,1.1,2.4,2.4,2.4s2.4-1.1,2.4-2.4V58l1.8,0.1v15h2.1V59.9h11.9v13.2
	h2.1V42H70.5z"/>
<rect x="35.1" y="48" width="24.5" height="2.7"/>
<circle cx="62.7" cy="35.7" r="4.1"/>
<path d="M42.1,53l-9.6,0.4v-9.2c0-1.8-1.5-3.2-3.2-3.2s-3.2,1.5-3.2,3.2v11.3c0,0.9,0.4,1.8,0.9,2.3H24V42h-2.1v31.1H24V59.9h11.9
	v13.2H38v-15l1.8-0.1v13c0,1.4,1.1,2.4,2.4,2.4c1.4,0,2.4-1.1,2.4-2.4V55.5c0-0.6-0.3-1.3-0.7-1.8C43.4,53.3,42.7,53,42.1,53z"/>
<circle cx="31.8" cy="35.7" r="4.1"/>
<path d="M47.4,25.7c-4.7,0-8.5,3.8-8.5,8.5s3.8,8.5,8.5,8.5s8.5-3.8,8.5-8.5S52,25.7,47.4,25.7z M47.4,40.4c-3.4,0-6.3-2.8-6.3-6.3
	s2.8-6.3,6.3-6.3c3.4,0,6.3,2.8,6.3,6.3S50.8,40.4,47.4,40.4z"/>
<path d="M46.4,37.2c-0.3,0-0.6-0.1-0.7-0.3l-2.1-2.1c-0.5-0.5-0.5-1.1,0-1.6c0.5-0.5,1.1-0.5,1.6,0l1.3,1.3l3-3
	c0.5-0.5,1.1-0.5,1.6,0c0.5,0.5,0.5,1.1,0,1.6l-3.9,3.8C47,37,46.7,37.2,46.4,37.2z"/>
</svg>
