<?xml version="1.0" encoding="utf-8"?>
<!-- Generator: Adobe Illustrator 22.0.1, SVG Export Plug-In . SVG Version: 6.00 Build 0)  -->
<svg version="1.1" id="Layer_1" xmlns="http://www.w3.org/2000/svg" xmlns:xlink="http://www.w3.org/1999/xlink" x="0px" y="0px"
	 viewBox="0 0 149 147.9" style="enable-background:new 0 0 149 147.9;" xml:space="preserve">
<style type="text/css">
	.st0{fill:none;}
</style>
<g>
	<path d="M61.4,75.3c4-2.7,6.6-7.3,6.6-12.4c0-8.3-6.7-15-15-15s-15,6.7-15,15c0,5.2,2.6,9.7,6.6,12.4c-4.3,1.2-7.4,5.2-7.4,9.8
		v13.5c0.9-0.2,1.9-0.4,2.9-0.6V85.1c0-3.6,2.7-6.6,6.1-7.2l2.3,9.3c0.1,0.5,0.5,0.9,0.9,1c0.2,0.1,0.3,0.1,0.5,0.1
		c0.3,0,0.6-0.1,0.9-0.3l4-3v11c1-0.1,2-0.2,2.9-0.2V85.1l3.9,2.9c0.7-1.2,1.6-2.4,2.7-3.4l0.3-3.2c0.4,0.7,0.7,1.4,0.9,2.2
		c0.8-0.6,1.7-1.2,2.6-1.6C67.3,78.8,64.7,76.2,61.4,75.3z M41,62.9c0-6.6,5.4-12,12-12s12,5.4,12,12s-5.4,12-12,12S41,69.5,41,62.9
		z M50.9,84.4l-1.6-6.5h1.4l3.6,4L50.9,84.4z M56.4,79.9l-1.8-2h3.6L56.4,79.9z M61.6,84.2l-3-2.2l3-3.4c0.2,0.1,0.4,0.2,0.5,0.3
		L61.6,84.2z"/>
</g>
<g>
	<path d="M107.4,74c4-2.7,6.6-7.3,6.6-12.4c0-8.3-6.7-15-15-15s-15,6.7-15,15c0,5.2,2.6,9.7,6.6,12.4c-4.1,1.2-7.2,4.9-7.4,9.3
		c1.1,0.8,2.1,1.7,2.9,2.7v-2.2c0-3,1.9-5.6,4.5-6.7c1.5,3.2,4.7,5.3,8.3,5.3c3.6,0,6.8-2.1,8.3-5.3c2.6,1.1,4.5,3.7,4.5,6.7V89
		h-5.2v-3.5c0-0.8-0.7-1.5-1.5-1.5c-0.8,0-1.5,0.7-1.5,1.5v12.2c1,0.2,2,0.4,2.9,0.6v-6.4h5.2v7.6c1.1,0.3,2,0.6,2.9,0.9V83.8
		C114.8,79.1,111.7,75.2,107.4,74z M99,79.4c-2.2,0-4.1-1.1-5.3-2.9h10.5C103.2,78.3,101.2,79.4,99,79.4z M99.1,73.6
		c-6.6,0-12-5.4-12-12s5.4-12,12-12s12,5.4,12,12S105.7,73.6,99.1,73.6z"/>
</g>
<path d="M46,85.4c-0.8,0-1.5,0.7-1.5,1.5v10.4c1-0.1,1.9-0.3,2.9-0.4v-10C47.5,86.1,46.8,85.4,46,85.4z"/>
<path d="M51.1,59.2c-0.6,0-1.1,0.4-1.4,0.9c-0.2,0.6-0.1,1.3,0.4,1.7s1.2,0.5,1.7,0.1c0.6-0.4,0.8-1.2,0.6-1.8
	C52.3,59.6,51.7,59.2,51.1,59.2z"/>
<path d="M52.5,60.1C52.5,60.2,52.5,60,52.5,60.1L52.5,60.1z"/>
<path d="M59.4,61.3L59.4,61.3c0.2,0.6,0.8,0.9,1.4,0.9c0.7,0,1.2-0.5,1.4-1.1c0.1-0.6-0.1-1.2-0.5-1.5c-0.5-0.4-1.2-0.4-1.8,0
	C59.4,59.9,59.2,60.6,59.4,61.3C59.4,61.2,59.4,61.2,59.4,61.3z"/>
<path d="M89.6,117.4l-0.3-3.1c22.7-1.9,30-6.5,30-8.4c0-0.9-1.6-2.4-6-4c-0.9-0.3-1.8-0.6-2.8-0.9c-1.5-0.4-3.2-0.9-5.1-1.2
	c-0.9-0.2-1.9-0.4-2.9-0.6c-4.2-0.7-8.8-1.3-13.9-1.7l0.3-3.1c5.1,0.4,9.9,1,14.2,1.8c1,0.2,2.1,0.4,3,0.6c1.9,0.4,3.7,0.8,5.3,1.3
	c1.1,0.3,2.1,0.6,3,1c5.4,2,8,4.2,8,7c0,3-3.2,5.5-9.9,7.6C106.9,115.2,98.9,116.6,89.6,117.4z"/>
<path d="M59.6,117.9c-10.2-0.6-19.3-2-25.8-3.8c-7.6-2.1-11.2-4.8-11.2-8c0-3.7,5-6.7,15-8.9c1-0.2,2-0.4,3-0.6
	c1.4-0.3,2.9-0.5,4.4-0.7c1-0.1,2-0.3,3-0.4c2.4-0.3,4.9-0.6,7.5-0.8c1-0.1,2-0.2,3-0.2c0.6,0,1.2-0.1,1.9-0.1l0.2,3.1
	c-0.6,0-1.2,0.1-1.8,0.1c-1,0.1-2,0.1-2.9,0.2c-2.6,0.2-5.1,0.5-7.4,0.8c-1,0.1-2,0.3-2.9,0.4c-1.5,0.2-2.9,0.5-4.3,0.7
	c-1,0.2-2,0.4-2.9,0.6c-9.9,2.2-12.6,4.8-12.6,5.9c0,2.7,10.9,7.3,34.1,8.7L59.6,117.9z"/>
<path d="M83.1,108c3.9-2.6,6.5-7,6.6-12c0-0.1,0-0.3,0-0.4c0-3.7-1.3-7-3.5-9.6c-0.9-1-1.8-1.9-2.9-2.7c-2.4-1.7-5.4-2.7-8.6-2.7
	c-2.3,0-4.5,0.5-6.4,1.4c-0.9,0.4-1.8,1-2.6,1.6c-0.4,0.3-0.8,0.6-1.2,1c-1.1,1-2,2.1-2.7,3.4c-1.3,2.2-2.1,4.8-2.1,7.6v0.1
	c0,5.1,2.7,9.6,6.6,12.3c-3.8,1.1-6.7,4.3-7.3,8.3c-0.1,0.5-0.1,1-0.1,1.5v17.9c0,0.8,0.7,1.5,1.5,1.5H89c0.8,0,1.5-0.7,1.5-1.5
	v-17.9c0-0.6-0.1-1.2-0.2-1.8C89.7,112.2,86.8,109.1,83.1,108z M62.7,95.6L62.7,95.6c0-3.1,1.2-6,3.2-8.1c0.9-0.9,1.8-1.7,2.9-2.4
	c1.8-1,3.8-1.6,5.9-1.6c3.3,0,6.3,1.4,8.5,3.5c1.3,1.3,2.4,3,2.9,4.8c0.4,1.2,0.6,2.4,0.6,3.7c0,0.1,0,0.1,0,0.2
	c-0.1,6.6-5.5,11.9-12,11.9C68.1,107.6,62.7,102.2,62.7,95.6z M80,110.6c-1.1,1.8-2.8,2.3-5,2.3s-4.4-0.5-5.5-2.3H80z M87.6,117.8
	v5.2v2.9v8.2h-5.2h-2.9H61.9v-16.4c0-0.5,0-0.9,0.1-1.4c0.5-2.4,2.1-4.4,4.4-5.3c1.5,3.2,4.7,4.1,8.3,4.1c3.6,0,6.8-0.9,8.3-4.1
	c2.2,0.9,3.8,2.8,4.3,5.1C87.5,116.8,87.6,117.3,87.6,117.8z"/>
<path d="M61.2,89.3c-0.2-0.6-0.8-0.9-1.4-0.9s-1.2,0.5-1.4,1.1c-0.2,0.6,0.1,1.3,0.6,1.6c0.5,0.3,1.2,0.3,1.7-0.1
	C61.3,90.6,61.5,89.9,61.2,89.3C61.2,89.2,61.2,89.3,61.2,89.3L61.2,89.3z"/>
<path d="M95.2,45.6c0.2,0.2,0.5,0.2,0.8,0.2c0.2,0,0.5-0.1,0.7-0.2c0.5-0.3,0.8-0.8,0.8-1.3v-3.4H99c2.5,0,4.6-2.1,4.6-4.6V20.9
	c0-2.5-2.1-4.6-4.6-4.6H83.7v-0.6c0-2.5-2.1-4.6-4.6-4.6h-27c-2.5,0-4.6,2.1-4.6,4.6v15.4c0,2.5,2.1,4.6,4.6,4.6h1.5v3.4
	c0,0.5,0.3,1,0.8,1.3c0.2,0.1,0.5,0.2,0.7,0.2c0.3,0,0.6-0.1,0.8-0.2l7.3-4.7h4.2v0.6c0,2.5,2.1,4.6,4.6,4.6h16L95.2,45.6z
	 M62.8,32.8c-0.3,0-0.6,0.1-0.8,0.2l-5.4,3.5v-2.2c0-0.8-0.7-1.5-1.5-1.5h-3c-0.9,0-1.6-0.7-1.6-1.6V15.7c0-0.9,0.7-1.6,1.6-1.6
	h27.1c0.9,0,1.6,0.7,1.6,1.6v0.6h-8.9c-2,0-3.7,1.3-4.3,3.1H56.4c-0.8,0-1.5,0.7-1.5,1.5s0.7,1.5,1.5,1.5h11v2.5h-11
	c-0.8,0-1.5,0.7-1.5,1.5s0.7,1.5,1.5,1.5h11v5h-4.6C62.8,32.9,62.8,32.8,62.8,32.8z M70.3,36.3V20.9c0-0.9,0.7-1.6,1.6-1.6H99
	c0.9,0,1.6,0.7,1.6,1.6v15.4c0,0.9-0.7,1.6-1.6,1.6h-3c-0.8,0-1.5,0.7-1.5,1.5v2.2l-5.4-3.5c-0.2-0.2-0.5-0.2-0.8-0.2H71.9
	C71,38,70.3,37.2,70.3,36.3L70.3,36.3z"/>
<path d="M76.2,27.5h18.5c0.8,0,1.5-0.7,1.5-1.5s-0.7-1.5-1.5-1.5H76.2c-0.8,0-1.5,0.7-1.5,1.5C74.7,26.9,75.4,27.5,76.2,27.5
	L76.2,27.5z"/>
<path d="M96.2,31.5c0-0.8-0.7-1.5-1.5-1.5H76.2c-0.8,0-1.5,0.7-1.5,1.5s0.7,1.5,1.5,1.5h18.5C95.5,33,96.2,32.3,96.2,31.5L96.2,31.5
	z"/>
<path d="M99.6,59.9c0.3,0.6,0.9,1,1.6,0.9c0.6-0.1,1.1-0.5,1.2-1.1c0.2-0.6-0.1-1.2-0.6-1.6c-0.6-0.4-1.4-0.3-1.9,0.2
	C99.5,58.7,99.3,59.4,99.6,59.9C99.6,60,99.5,59.8,99.6,59.9L99.6,59.9z"/>
<path d="M92.7,59.1c0-0.2-0.1-0.4-0.2-0.5c-0.7-1.1-2.5-0.7-2.7,0.6c-0.2,1.2,1.1,2.1,2.2,1.5C92.6,60.3,92.9,59.7,92.7,59.1
	C92.7,59,92.8,59.2,92.7,59.1L92.7,59.1z"/>
<path d="M99.3,64.4c-0.5-0.5-1.2-0.5-1.7,0c-0.4,0.4-0.9,0.6-1.5,0.6c-0.6,0-1.1-0.2-1.5-0.6c-0.5-0.5-1.2-0.5-1.7,0s-0.5,1.2,0,1.7
	c0.9,0.9,2,1.3,3.1,1.3s2.3-0.4,3.1-1.3C99.8,65.6,99.8,64.9,99.3,64.4L99.3,64.4z"/>
<path d="M82.4,134.2"/>
<polygon points="98,111 98.5,109.1 89.1,106.8 87,107.1 88.7,108.7 "/>
<g>
	<g>
		<path d="M46.8,113.4l-5.6-10.1l17.2-1.4l7.6,9.6L46.8,113.4z M44,104.8l3.7,6.8l15-1.5l-5.1-6.4L44,104.8z"/>
	</g>
	<g>
		<line class="st0" x1="46.7" y1="105.7" x2="57.2" y2="104.9"/>
		
			<rect x="46.6" y="104.9" transform="matrix(0.9972 -7.519795e-02 7.519795e-02 0.9972 -7.7754 4.2008)" width="10.6" height="0.9"/>
	</g>
	<g>
		<line class="st0" x1="47.9" y1="107.7" x2="58.5" y2="106.9"/>
		
			<rect x="47.9" y="106.9" transform="matrix(0.9967 -8.154513e-02 8.154513e-02 0.9967 -8.577 4.6954)" width="10.6" height="0.9"/>
	</g>
	<g>
		<line class="st0" x1="49.2" y1="110" x2="59.8" y2="109.1"/>
		<rect x="49.2" y="109.1" transform="matrix(0.9967 -8.152556e-02 8.152556e-02 0.9967 -8.75 4.8076)" width="10.6" height="0.9"/>
	</g>
</g>
<path d="M112.1,104.3l0.9-0.6l-0.5-0.7l-2,1.3h-3.1c-0.4-0.6-1.4-0.9-2.4-0.9c-1.2,0-2.5,0.4-2.5,1.3s1.2,1.3,2.3,1.3
	c-0.2,0.2-0.3,0.4-0.3,0.6c0,0.9,1.3,1.3,2.5,1.3s2.5-0.4,2.5-1.3c0-0.2-0.1-0.4-0.2-0.6l1.4-0.9h3.7v-0.9L112.1,104.3L112.1,104.3z
	 M108.5,105.6c-0.4-0.1-0.8-0.2-1.3-0.2c0.1-0.1,0.1-0.1,0.2-0.2h1.8L108.5,105.6z M105,104.3c0.9,0,1.5,0.3,1.6,0.4
	c-0.1,0.1-0.7,0.4-1.6,0.4c-0.9,0-1.5-0.3-1.6-0.4C103.5,104.6,104.1,104.3,105,104.3z M107.1,107.1c-0.9,0-1.5-0.3-1.6-0.4
	c0.1-0.1,0.7-0.4,1.6-0.4s1.5,0.3,1.6,0.4C108.5,106.8,108,107.1,107.1,107.1z"/>
<g>
	<g>
		<path d="M90.8,102L87,99.8l7-1.5l3.8,2.2L90.8,102z M89,100.1l2,1.1l4.9-1l-2-1.1L89,100.1z"/>
	</g>
	<g>
		<path d="M100.5,104.4l-7.9-0.4l2.7-2.6L100.5,104.4z M94.3,103.3l3.3,0.2l-2.2-1.3L94.3,103.3z"/>
	</g>
	<g>
		<path d="M100.6,102.6c-1,0-1.9-0.2-2.4-0.5s-0.5-0.6-0.5-0.8c0.1-0.7,1.3-1.1,2-1.2c1.6-0.3,3.6-0.2,4.4,0.3
			c0.5,0.3,0.5,0.6,0.5,0.8c-0.1,0.7-1.3,1.1-2,1.2l0,0C102,102.5,101.3,102.6,100.6,102.6z M98.4,101.5L98.4,101.5
			c0.7,0.5,2.4,0.6,4,0.3c1-0.2,1.4-0.5,1.5-0.6c0,0,0,0-0.1-0.1c-0.6-0.4-2.3-0.5-3.9-0.2C98.9,101,98.5,101.3,98.4,101.5
			L98.4,101.5z"/>
	</g>
</g>
</svg>
