<?xml version="1.0" encoding="utf-8"?>
<!-- Generator: Adobe Illustrator 22.0.1, SVG Export Plug-In . SVG Version: 6.00 Build 0)  -->
<svg version="1.1" id="Layer_1" xmlns="http://www.w3.org/2000/svg" xmlns:xlink="http://www.w3.org/1999/xlink" x="0px" y="0px"
	 viewBox="0 0 78.6 98.8" style="enable-background:new 0 0 78.6 98.8;" xml:space="preserve">
<g>
	<polygon points="29.7,22.8 29.7,47.8 42.3,47.8 42.3,60.3 54.8,47.8 73.6,47.8 73.6,22.8 	"/>
	<path d="M54.8,72.9H10.9V16.5h43.9h6.3v-6.3c0-3.5-2.8-6.3-6.3-6.3H10.9c-3.5,0-6.3,2.8-6.3,6.3v75.2c0,3.5,2.8,6.3,6.3,6.3h43.9
		c3.5,0,6.3-2.8,6.3-6.3V54.1h-6.3V72.9z M32.9,87c-2.6,0-4.7-2.1-4.7-4.7s2.1-4.7,4.7-4.7s4.7,2.1,4.7,4.7S35.5,87,32.9,87z"/>
</g>
</svg>
