<?xml version="1.0" encoding="utf-8"?>
<!-- Generator: Adobe Illustrator 22.0.1, SVG Export Plug-In . SVG Version: 6.00 Build 0)  -->
<svg version="1.1" id="Layer_1" xmlns="http://www.w3.org/2000/svg" xmlns:xlink="http://www.w3.org/1999/xlink" x="0px" y="0px"
	 viewBox="0 0 82 84.5" style="enable-background:new 0 0 82 84.5;" xml:space="preserve">
<g>
	<path d="M46.2,20.4H8.6c-0.3,0-0.6-0.3-0.6-0.6v-6.9c0-0.3,0.3-0.6,0.6-0.6h37.6c0.3,0,0.6,0.3,0.6,0.6v6.9
		C46.8,20.1,46.5,20.4,46.2,20.4z"/>
	<path d="M17.1,62.4H8.6c-0.3,0-0.6-0.3-0.6-0.6V50.3c0-0.3,0.3-0.6,0.6-0.6h8.5c0.3,0,0.6,0.3,0.6,0.6v11.4
		C17.7,62.1,17.4,62.4,17.1,62.4z"/>
	<g>
		<path d="M53.7,56c0.7-0.4,1.3-0.8,1.9-1.3V30.8c-0.6-0.5-1.3-0.9-1.9-1.3V56z"/>
		<path d="M57.9,33v19.5c0.8-0.9,1.4-1.9,1.9-2.9V36C59.3,34.9,58.7,33.9,57.9,33z"/>
	</g>
	<g>
		<path d="M50.4,28.8c0-0.4-0.3-0.7-0.7-0.7h-7.5c-1.2,0.3-2.3,0.8-3.4,1.4h11C50.1,29.5,50.4,29.2,50.4,28.8z"/>
		<path d="M49.7,32.6H34.9c-0.4,0.4-0.8,0.9-1.1,1.4h15.9c0.4,0,0.7-0.3,0.7-0.7C50.4,32.9,50.1,32.6,49.7,32.6z"/>
		<path d="M49.7,37.1H32.1c-0.2,0.5-0.3,0.9-0.5,1.4h18.1c0.4,0,0.7-0.3,0.7-0.7C50.4,37.5,50.1,37.1,49.7,37.1z"/>
		<path d="M49.7,41.7H31.1c0,0.4,0,0.7,0,1.1c0,0.1,0,0.2,0,0.3h18.7c0.4,0,0.7-0.3,0.7-0.7C50.4,42,50.1,41.7,49.7,41.7z"/>
		<path d="M49.7,46.2H31.4c0.1,0.5,0.2,1,0.4,1.4h17.9c0.4,0,0.7-0.3,0.7-0.7C50.4,46.5,50.1,46.2,49.7,46.2z"/>
		<path d="M49.7,50.7H33.3c0.3,0.5,0.6,1,1,1.4h15.5c0.4,0,0.7-0.3,0.7-0.7C50.4,51,50.1,50.7,49.7,50.7z"/>
		<path d="M49.7,55.2H37.5c0.8,0.5,1.6,1,2.5,1.4h9.7c0.4,0,0.7-0.3,0.7-0.7S50.1,55.2,49.7,55.2z"/>
	</g>
	<path d="M77.1,69.4L60.9,53.2c2.1-2.9,3.3-6.5,3.3-10.4c0-9.9-8.1-18-18-18c-9.9,0-18,8.1-18,18c0,9.9,8.1,18,18,18
		c3.9,0,7.5-1.2,10.4-3.3l16.3,16.3c0.6,0.6,1.3,0.9,2.1,0.9c0.8,0,1.5-0.3,2.1-0.9C78.3,72.5,78.3,70.6,77.1,69.4z M29.8,42.8
		c0-9.1,7.3-16.4,16.4-16.4c9.1,0,16.4,7.3,16.4,16.4c0,9.1-7.3,16.4-16.4,16.4C37.2,59.2,29.8,51.8,29.8,42.8z"/>
	<g>
		<path d="M8.6,24.3h37.6c0.3,0,0.6-0.3,0.6-0.6c0-0.3-0.3-0.6-0.6-0.6H8.6c-0.3,0-0.6,0.3-0.6,0.6C8,24,8.3,24.3,8.6,24.3z"/>
		<path d="M8.6,28.1h28.5c0.7-0.5,1.5-0.8,2.3-1.2H8.6c-0.3,0-0.6,0.3-0.6,0.6C8,27.8,8.3,28.1,8.6,28.1z"/>
		<path d="M8.6,31.9h24.2c0.3-0.4,0.7-0.8,1.1-1.2H8.6C8.3,30.7,8,31,8,31.3C8,31.6,8.3,31.9,8.6,31.9z"/>
		<path d="M8.6,35.7h21.9c0.2-0.4,0.4-0.8,0.6-1.2H8.6c-0.3,0-0.6,0.3-0.6,0.6S8.3,35.7,8.6,35.7z"/>
		<path d="M8.6,39.5h20.7c0.1-0.4,0.2-0.8,0.3-1.2H8.6c-0.3,0-0.6,0.3-0.6,0.6C8,39.2,8.3,39.5,8.6,39.5z"/>
		<path d="M8.6,43.3H29c0-0.2,0-0.4,0-0.6c0-0.2,0-0.4,0-0.6H8.6c-0.3,0-0.6,0.3-0.6,0.6C8,43,8.3,43.3,8.6,43.3z"/>
		<path d="M8.6,47.1h20.9c-0.1-0.4-0.2-0.8-0.3-1.2H8.6c-0.3,0-0.6,0.3-0.6,0.6C8,46.9,8.3,47.1,8.6,47.1z"/>
		<path d="M20.4,50.9H31c-0.2-0.4-0.4-0.8-0.6-1.2H20.4c-0.3,0-0.6,0.3-0.6,0.6C19.8,50.7,20,50.9,20.4,50.9z"/>
		<path d="M20.4,54.7h13.4c-0.4-0.4-0.7-0.8-1-1.2H20.4c-0.3,0-0.6,0.3-0.6,0.6C19.8,54.5,20,54.7,20.4,54.7z"/>
		<path d="M20.4,58.6h18.9c-0.8-0.3-1.5-0.7-2.2-1.2H20.4c-0.3,0-0.6,0.3-0.6,0.6C19.8,58.3,20,58.6,20.4,58.6z"/>
		<path d="M46.2,61.2H20.4c-0.3,0-0.6,0.3-0.6,0.6c0,0.3,0.3,0.6,0.6,0.6h25.9c0.3,0,0.6-0.3,0.6-0.6C46.8,61.4,46.6,61.2,46.2,61.2
			z"/>
		<path d="M46.2,65H8.6C8.3,65,8,65.3,8,65.6c0,0.3,0.3,0.6,0.6,0.6h37.6c0.3,0,0.6-0.3,0.6-0.6C46.8,65.3,46.6,65,46.2,65z"/>
	</g>
	<path d="M52.8,58.8v8.4h-1.9v-7.7c-0.5,0.1-1,0.3-1.6,0.4v10.9H5.5V9.7h43.8v16c0.5,0.1,1.1,0.2,1.6,0.4V8.9c0-0.4-0.4-0.8-0.8-0.8
		H9V6.2h43.8v20.5c0.5,0.2,1.1,0.5,1.6,0.7V5.4c0-0.4-0.4-0.8-0.8-0.8H8.2C7.7,4.6,7.4,5,7.4,5.4v2.7H4.7c-0.4,0-0.8,0.4-0.8,0.8
		v62.5c0,0.4,0.4,0.8,0.8,0.8h45.4c0.4,0,0.8-0.4,0.8-0.8v-2.7h2.7c0.4,0,0.8-0.4,0.8-0.8V58C53.9,58.3,53.3,58.5,52.8,58.8z"/>
</g>
</svg>
